<svg width="314" height="284" viewBox="0 0 314 284" fill="none" xmlns="http://www.w3.org/2000/svg">
<g opacity="0.99">
<path d="M223.239 282.865C273.337 279.873 313.543 270.729 313.042 262.442C312.541 254.155 271.522 249.864 221.424 252.856C171.326 255.849 131.12 264.993 131.621 273.28C132.122 281.566 173.141 285.858 223.239 282.865Z" fill="#462517"/>
<path d="M57.6031 175.101C46.6658 205.034 50.8949 223.384 65.4779 236.427C80.0609 249.469 107.04 258.164 126.727 254.904C140.945 254.179 133.358 262.979 132.924 270.12C131.535 294.861 252.21 260.081 264.901 230.992C269.71 217.692 248.495 222.297 253.234 214.689C280.578 195.125 303.181 169.402 301.723 142.23C299.535 118.072 284.271 98.0982 271.974 96.4823" fill="#3C8236"/>
<path fill-rule="evenodd" clip-rule="evenodd" d="M291.694 110.189C297.439 118.577 301.88 129.815 302.994 142.116L302.996 142.139L302.997 142.162C303.747 156.13 298.307 169.634 289.315 182.053C280.369 194.407 267.853 205.766 254.196 215.563C253.806 216.249 253.794 216.624 253.827 216.797C253.858 216.965 253.98 217.207 254.453 217.528C254.937 217.856 255.636 218.162 256.547 218.492C256.994 218.654 257.468 218.813 257.972 218.982L258.032 219.002C258.513 219.163 259.017 219.332 259.523 219.512C261.577 220.243 263.955 221.248 265.441 223.117C267.029 225.115 267.405 227.814 266.101 231.421L266.088 231.459L266.071 231.496C264.368 235.4 260.918 239.278 256.339 243.019C251.743 246.775 245.917 250.468 239.333 253.974C226.163 260.989 209.848 267.321 193.993 271.959C178.151 276.593 162.678 279.563 151.202 279.802C145.485 279.922 140.617 279.368 137.173 277.901C135.437 277.161 133.993 276.16 133.009 274.828C132.01 273.476 131.548 271.867 131.65 270.049L131.65 270.047L131.65 270.044C131.769 268.087 132.373 266.057 132.916 264.263L132.954 264.137C133.506 262.316 133.971 260.777 134.046 259.49C134.117 258.256 133.82 257.531 133.055 257.032C132.137 256.434 130.316 255.998 126.863 256.166C116.785 257.819 104.941 256.418 93.8102 252.99C82.6503 249.553 72.0838 244.041 64.624 237.369C57.1382 230.674 52.2704 222.569 50.7084 212.287C49.1523 202.043 50.8934 189.748 56.4034 174.668L58.8022 175.533C53.375 190.386 51.762 202.232 53.2318 211.908C54.6959 221.545 59.2341 229.136 66.3313 235.484C73.4545 241.855 83.6688 247.212 94.5657 250.568C105.465 253.924 116.924 255.242 126.517 253.653L126.588 253.641L126.661 253.637C130.271 253.453 132.815 253.843 134.454 254.911C136.251 256.081 136.696 257.867 136.594 259.635C136.501 261.231 135.955 263.031 135.446 264.712C135.417 264.806 135.388 264.9 135.36 264.993C134.803 266.833 134.297 268.581 134.198 270.193C134.127 271.468 134.445 272.485 135.067 273.327C135.704 274.19 136.723 274.95 138.179 275.57C141.118 276.822 145.548 277.384 151.148 277.267C162.304 277.034 177.533 274.13 193.272 269.526C208.998 264.925 225.144 258.654 238.127 251.739C244.619 248.281 250.292 244.678 254.719 241.06C259.147 237.442 262.237 233.883 263.714 230.525C264.796 227.506 264.324 225.803 263.439 224.69C262.448 223.444 260.72 222.631 258.663 221.9C258.181 221.728 257.697 221.566 257.211 221.403L257.157 221.385C256.657 221.218 256.154 221.049 255.674 220.875C254.731 220.534 253.778 220.141 253.014 219.623C252.241 219.098 251.52 218.347 251.317 217.259C251.118 216.193 251.475 215.104 252.149 214.021L252.283 213.807L252.489 213.66C266.09 203.927 278.463 192.698 287.243 180.572C296.019 168.451 301.151 155.516 300.45 142.32C299.372 130.472 295.089 119.653 289.584 111.616C284.032 103.51 277.416 98.4765 271.806 97.7393L272.141 95.2251C278.828 96.1038 285.992 101.865 291.694 110.189Z" fill="#462517"/>
<path d="M176.845 160.759C237.86 140.365 283.937 113.832 279.762 101.495C275.586 89.1585 222.739 95.6898 161.725 116.083C100.71 136.477 54.6326 163.01 58.8081 175.347C62.9836 187.684 115.831 181.152 176.845 160.759Z" fill="#462517"/>
<path fill-rule="evenodd" clip-rule="evenodd" d="M60.6697 170.662C59.7808 172.428 59.6405 173.83 60.0171 174.943C60.3937 176.055 61.3579 177.088 63.1401 177.961C64.9262 178.837 67.4154 179.489 70.59 179.882C76.9329 180.667 85.717 180.383 96.3541 179.069C117.607 176.442 145.987 169.735 176.438 159.557C206.89 149.379 233.579 137.679 252.11 127.009C261.384 121.668 268.555 116.619 273.132 112.184C275.422 109.965 277.009 107.95 277.899 106.18C278.788 104.414 278.929 103.012 278.552 101.9C278.175 100.787 277.211 99.7543 275.429 98.881C273.643 98.0059 271.154 97.3536 267.979 96.9606C261.636 96.1756 252.852 96.4592 242.215 97.7739C220.962 100.4 192.583 107.107 162.131 117.285C131.679 127.463 104.99 139.163 86.4593 149.834C77.1849 155.174 70.0137 160.224 65.4375 164.658C63.1471 166.878 61.5605 168.892 60.6697 170.662ZM85.1798 147.639C103.898 136.861 130.754 125.097 161.317 114.882C191.881 104.666 220.432 97.9104 241.9 95.2572C252.624 93.9319 261.647 93.6213 268.295 94.444C271.615 94.855 274.416 95.5571 276.558 96.6064C278.703 97.6576 280.304 99.1196 280.971 101.091C281.638 103.063 281.252 105.189 280.182 107.315C279.114 109.437 277.309 111.678 274.913 114C270.118 118.647 262.739 123.819 253.389 129.203C234.671 139.982 207.815 151.745 177.252 161.961C146.689 172.176 118.137 178.932 96.6691 181.585C85.9456 182.911 76.9217 183.221 70.2746 182.398C66.9543 181.987 64.1531 181.285 62.0115 180.236C59.8661 179.185 58.2655 177.723 57.5982 175.751C56.9309 173.78 57.3172 171.654 58.3872 169.528C59.4554 167.406 61.2602 165.164 63.6558 162.842C68.4514 158.195 75.83 153.023 85.1798 147.639Z" fill="#462517"/>
<path d="M91.2463 225.416C90.1525 225.507 89.5765 225.021 89.5145 223.967L88.3479 200.469C88.2859 199.411 88.7745 198.835 89.8062 198.748L103.598 197.599C104.663 197.512 105.24 197.995 105.33 199.048L105.53 201.469C105.618 202.501 105.14 203.063 104.105 203.15L94.1556 203.997L94.3816 209.099L102.847 207.838C103.909 207.669 104.486 208.152 104.579 209.287L104.783 211.707C104.863 212.66 104.389 213.221 103.354 213.384L94.6952 214.703L94.8957 219.525L105.366 218.656C106.431 218.569 107.011 219.054 107.098 220.105L107.302 222.529C107.39 223.56 106.913 224.119 105.873 224.206L91.2463 225.416Z" fill="#F9A705"/>
<path d="M127.357 222.032L124.193 222.561C123.403 222.692 122.941 222.365 122.807 221.58L122.523 219.891C121.99 220.615 121.321 221.23 120.554 221.703C119.784 222.192 118.941 222.558 118.057 222.79C117.838 222.855 117.615 222.906 117.39 222.942C116.148 223.173 114.868 223.088 113.668 222.695C112.567 222.329 111.59 221.667 110.846 220.783C110.087 219.872 109.592 218.774 109.413 217.605C109.216 216.499 109.296 215.362 109.646 214.294C110.036 213.186 110.762 212.225 111.724 211.544C112.76 210.764 114.186 210.223 116.004 209.921C116.804 209.792 117.616 209.752 118.425 209.801C119.254 209.847 120.076 209.968 120.883 210.164C120.862 210.039 120.828 209.918 120.78 209.801C120.734 209.69 120.687 209.569 120.638 209.439C120.335 208.607 119.725 207.921 118.932 207.519C118.061 207.138 117.092 207.039 116.161 207.236C115.374 207.375 114.615 207.638 113.912 208.015C113.132 208.423 112.404 208.925 111.746 209.508C111.25 209.939 110.722 209.787 110.164 209.044L109.431 208.015L108.644 206.972L108.436 206.686C108.366 206.595 108.307 206.496 108.261 206.392C108.192 206.205 108.181 206.003 108.227 205.809C108.274 205.616 108.377 205.441 108.523 205.305C109.419 204.349 110.488 203.568 111.673 203.005C112.999 202.348 114.416 201.894 115.877 201.657C118.648 201.198 120.977 201.632 122.866 202.958C124.754 204.284 125.937 206.349 126.413 209.153L128.345 220.663C128.366 220.783 128.372 220.904 128.364 221.025C128.364 221.134 128.345 221.243 128.338 221.351C128.257 221.546 128.122 221.713 127.948 221.834C127.774 221.955 127.569 222.024 127.357 222.032ZM117.944 217.826C118.492 217.732 119.025 217.567 119.53 217.337C120.024 217.124 120.483 216.836 120.89 216.486C121.24 216.195 121.487 215.8 121.593 215.359C121.629 215.241 121.65 215.12 121.655 214.997C121.661 214.875 121.654 214.754 121.634 214.634L121.604 214.479C120.886 214.323 120.153 214.242 119.417 214.236C118.724 214.221 118.031 214.268 117.346 214.377C116.632 214.45 115.952 214.717 115.381 215.149C115.181 215.32 115.032 215.542 114.949 215.791C114.867 216.04 114.853 216.306 114.911 216.562C114.954 216.829 115.073 217.079 115.255 217.282C115.436 217.484 115.672 217.63 115.935 217.703C116.583 217.917 117.275 217.959 117.944 217.826Z" fill="#F9A705"/>
<path d="M147.347 215.131C146.563 216.048 145.616 216.815 144.555 217.395C143.475 218.009 142.31 218.463 141.098 218.743C138.962 219.226 137.156 218.937 135.681 217.877C134.206 216.817 133.17 214.98 132.575 212.366L131.426 207.294L129.129 207.689C128.971 207.732 128.805 207.741 128.644 207.714C128.482 207.687 128.328 207.625 128.192 207.533C127.965 207.319 127.813 207.037 127.762 206.729L127.059 203.635C126.973 203.283 127.028 202.912 127.212 202.599C127.301 202.44 127.426 202.304 127.578 202.202C127.731 202.101 127.905 202.037 128.087 202.016L130.147 201.675L129.137 197.244C128.962 196.465 129.264 195.991 130.045 195.795L133.176 195.092C133.956 194.915 134.438 195.215 134.613 195.994L135.706 200.737L141.419 199.82C141.58 199.772 141.75 199.76 141.916 199.787C142.082 199.813 142.24 199.876 142.378 199.972C142.593 200.193 142.737 200.474 142.79 200.777L143.497 203.885C143.582 204.238 143.526 204.609 143.341 204.921C143.253 205.081 143.128 205.218 142.977 205.32C142.825 205.422 142.651 205.486 142.469 205.508L137.001 206.41L137.85 210.142C138.13 211.386 138.566 212.193 139.159 212.562C139.471 212.749 139.818 212.871 140.179 212.92C140.54 212.969 140.908 212.945 141.259 212.848C141.807 212.718 142.319 212.471 142.761 212.124C143.2 211.786 143.619 211.423 144.015 211.037C144.112 210.923 144.24 210.839 144.384 210.796C144.527 210.753 144.68 210.753 144.824 210.794C145.152 210.905 145.433 211.122 145.623 211.41L147.15 213.435C147.355 213.687 147.523 213.967 147.65 214.265C147.74 214.535 147.639 214.824 147.347 215.131Z" fill="#F9A705"/>
<path d="M163.071 211.765C163.071 212.631 162.907 213.214 162.616 213.486C162.191 213.822 161.667 214.01 161.124 214.022L158.722 214.254C157.96 214.319 157.471 214.207 157.264 213.928C157.056 213.649 156.954 213.124 156.972 212.37L157.471 187.694C157.498 186.969 157.611 186.477 157.81 186.216C158.084 185.914 158.444 185.703 158.842 185.611L162.142 184.607C162.374 184.519 162.622 184.481 162.871 184.495C163.055 184.545 163.217 184.658 163.327 184.814C163.48 185.002 163.731 185.296 164.078 185.691L181.253 204.244C181.796 204.827 182.033 205.331 181.982 205.693C181.931 206.055 181.544 206.436 180.888 206.78L178.934 207.791C178.256 208.134 177.732 208.271 177.363 208.204C176.998 208.135 176.491 207.754 175.857 207.059L173.046 203.91L163.111 206.925L163.071 211.765ZM169.375 199.809L163.111 192.795L163.086 201.719L169.375 199.809Z" fill="#F9A705"/>
<path d="M189.532 201.987C189.897 202.987 189.572 203.664 188.566 204.026L186.306 204.838C185.299 205.2 184.614 204.881 184.249 203.881L177.851 186.263C177.486 185.268 177.807 184.588 178.813 184.223L181.077 183.412C182.08 183.049 182.765 183.372 183.13 184.368L184.26 187.48C184.474 186.323 184.962 185.233 185.682 184.299C186.286 183.497 187.104 182.881 188.045 182.52C188.456 182.372 188.883 182.269 189.317 182.212C189.679 182.157 190.048 182.157 190.411 182.212C190.561 182.234 190.7 182.303 190.808 182.41C190.915 182.516 190.986 182.654 191.009 182.803L192.19 187.259C192.231 187.368 192.246 187.485 192.233 187.6C192.22 187.715 192.178 187.826 192.113 187.922C191.919 188.114 191.657 188.222 191.384 188.223C190.893 188.273 190.406 188.356 189.926 188.469C189.536 188.567 189.175 188.676 188.832 188.792C188.335 188.96 187.882 189.235 187.504 189.597C187.126 189.959 186.833 190.399 186.645 190.886C186.222 191.915 186.287 193.191 186.841 194.715L189.532 201.987Z" fill="#F9A705"/>
<path d="M208.622 196.867C206.899 197.631 204.997 197.903 203.127 197.654C201.41 197.396 199.801 196.662 198.486 195.534C197.109 194.29 196.025 192.76 195.311 191.052C194.597 189.345 194.271 187.502 194.356 185.654C194.471 183.931 195.083 182.277 196.12 180.89C197.301 179.441 198.827 178.307 200.56 177.59C202.292 176.874 204.177 176.597 206.044 176.785C207.761 177.044 209.369 177.779 210.685 178.905C212.097 180.123 213.194 181.662 213.882 183.39C214.628 185.088 214.947 186.941 214.812 188.788C214.679 190.507 214.068 192.155 213.048 193.549C211.916 195.047 210.382 196.197 208.622 196.867ZM206.409 191.531C207.474 191.124 208.36 190.353 208.906 189.357C209.438 188.374 209.376 187.097 208.72 185.528C208.064 183.958 207.198 183.013 206.124 182.694C205.024 182.407 203.859 182.486 202.809 182.92C201.758 183.354 200.88 184.119 200.309 185.096C199.779 186.077 199.843 187.352 200.499 188.922C201.155 190.492 202.02 191.437 203.095 191.755C204.191 192.072 205.365 191.993 206.409 191.531Z" fill="#F9A705"/>
<path d="M231.564 184.151L230.944 182.901C230.822 184.209 230.333 185.456 229.533 186.502C228.825 187.458 227.902 188.236 226.839 188.777C226.041 189.196 225.164 189.445 224.264 189.507C223.363 189.57 222.46 189.444 221.611 189.14C219.876 188.524 218.364 186.916 217.076 184.317L212.395 174.898C211.921 173.945 212.165 173.231 213.124 172.764L215.282 171.706C216.242 171.223 216.958 171.464 217.429 172.43L221.312 180.26C221.961 181.566 222.69 182.412 223.5 182.796C223.89 182.988 224.321 183.085 224.756 183.076C225.191 183.068 225.618 182.956 226.001 182.749C226.732 182.413 227.361 181.89 227.823 181.234C228.256 180.575 228.465 179.795 228.418 179.01C228.347 177.981 228.056 176.98 227.565 176.072L223.416 167.71C222.945 166.757 223.186 166.047 224.145 165.576L226.303 164.518C227.263 164.047 227.98 164.288 228.454 165.243L236.61 181.684C237.08 182.636 236.839 183.35 235.881 183.817L233.722 184.875C232.756 185.346 232.042 185.104 231.564 184.151Z" fill="#F9A705"/>
<path d="M245.856 177.35C246.405 178.259 246.224 178.983 245.312 179.524L243.249 180.76C242.335 181.31 241.606 181.13 241.061 180.22L231.116 163.844C230.566 162.936 230.748 162.211 231.659 161.67L233.719 160.435C234.633 159.889 235.362 160.069 235.906 160.975L237.459 163.536C237.49 162.221 237.874 160.937 238.571 159.819C239.188 158.81 240.035 157.958 241.043 157.334C241.802 156.848 242.655 156.526 243.546 156.388C244.438 156.249 245.348 156.297 246.22 156.529C248.004 156.995 249.648 158.469 251.153 160.949L256.621 169.956C257.171 170.864 256.99 171.589 256.078 172.13L254.018 173.365C253.1 173.916 252.371 173.736 251.831 172.825L247.292 165.355C246.53 164.101 245.735 163.315 244.897 162.996C244.492 162.837 244.055 162.777 243.622 162.822C243.189 162.867 242.773 163.015 242.41 163.254C241.711 163.651 241.13 164.225 240.726 164.916C240.351 165.609 240.209 166.402 240.321 167.181C240.479 168.198 240.852 169.171 241.415 170.036L245.856 177.35Z" fill="#F9A705"/>
<path d="M275.703 158.421L273.826 159.917C272.992 160.579 272.241 160.495 271.573 159.667L270.643 158.515C270.569 159.529 270.265 160.514 269.753 161.395C269.224 162.311 268.523 163.119 267.69 163.775C266.517 164.722 265.086 165.3 263.581 165.435C261.983 165.567 260.38 165.262 258.944 164.554C257.267 163.735 255.805 162.54 254.671 161.065C253.438 159.617 252.622 157.864 252.308 155.993C252.051 154.3 252.264 152.568 252.924 150.986C253.61 149.356 254.708 147.93 256.111 146.845C256.638 146.423 257.191 146.034 257.766 145.679C258.34 145.329 258.933 145.011 259.542 144.726L255.032 139.146C254.363 138.315 254.446 137.568 255.28 136.904L257.161 135.411C257.995 134.747 258.746 134.829 259.414 135.657L275.955 156.174C276.623 157.008 276.539 157.756 275.703 158.421ZM264.963 158.544C265.638 158.037 266.155 157.352 266.454 156.566C266.717 155.802 266.733 154.977 266.501 154.203C266.218 153.263 265.743 152.391 265.105 151.642L263.227 149.309C262.619 149.514 262.034 149.781 261.481 150.106C260.866 150.473 260.278 150.882 259.72 151.33C258.784 152.023 258.146 153.041 257.934 154.182C257.744 155.285 258.117 156.418 259.053 157.58C259.538 158.205 260.162 158.711 260.876 159.058C261.522 159.373 262.246 159.499 262.961 159.42C263.699 159.324 264.393 159.019 264.963 158.544Z" fill="#F9A705"/>
<path d="M94.9396 165.434C116.366 158.149 78.1473 146.678 101.622 126.267C125.097 105.855 152.204 110.688 141.642 97.7393C136.33 88.7218 22.7901 13.1829 116.916 2.67273C167.228 -2.03713 160.086 23.1425 160.086 23.1425C160.086 23.1425 213.893 -3.85948 224.59 25.4322C235.228 65.0602 194.531 67.7738 147.278 57.7817C94.648 46.0215 129.928 85.8089 156.859 87.3704C206.657 91.3557 192.515 108.311 134.62 123.825C108.294 130.647 119.928 150.193 132.597 145.845C204.021 104.989 189.908 140.095 245.885 125.919C237.839 138.516 203.292 151.232 173.666 161.648C146.108 171.673 148.656 181.097 130.066 189.426C30.1728 234.713 -23.4199 190.513 18.7214 182.057C45.7584 175.64 -4.99786 187.94 1.99105 162.214C13.2273 126.582 63.8595 180.615 94.9396 165.434Z" fill="#F9A705"/>
<path fill-rule="evenodd" clip-rule="evenodd" d="M117.047 3.93411C105.366 5.23931 97.025 7.54251 91.3313 10.5269C85.66 13.4996 82.6846 17.1063 81.5495 21.0421C80.4044 25.013 81.0638 29.5535 83.1515 34.5033C85.2372 39.4485 88.7011 44.6867 92.9833 49.9704C101.547 60.5373 113.22 71.0901 123.135 79.5992C125.61 81.7237 127.972 83.7177 130.147 85.5513L130.565 85.9037C132.575 87.5984 134.419 89.1535 136.028 90.5377C137.747 92.0154 139.213 93.3119 140.339 94.3869C141.384 95.3854 142.238 96.2876 142.689 97.0096C144.027 98.6627 144.891 100.176 145.17 101.604C145.47 103.144 145.069 104.482 144.123 105.604C143.234 106.657 141.896 107.486 140.362 108.217C138.809 108.957 136.92 109.659 134.823 110.399C134.183 110.625 133.52 110.856 132.836 111.094C124.512 113.992 113.111 117.962 102.462 127.221C96.7701 132.17 95.0101 136.4 94.9633 139.99C94.9154 143.655 96.6367 146.957 98.5974 150.105C98.9086 150.605 99.2311 151.109 99.5522 151.611C100.208 152.636 100.858 153.652 101.393 154.603C102.194 156.025 102.868 157.515 102.993 159.006C103.126 160.588 102.633 162.078 101.32 163.391C100.078 164.632 98.1412 165.679 95.4291 166.608C87.2718 170.561 77.9444 169.948 68.5666 167.553C60.886 165.59 52.9967 162.382 45.5066 159.335C43.8317 158.654 42.1767 157.981 40.5484 157.331C31.5309 153.736 23.4226 150.913 16.918 151.087C13.7157 151.173 10.9791 151.986 8.72285 153.743C6.46392 155.501 4.56635 158.299 3.21609 162.568C2.39655 165.599 2.45372 167.962 3.03095 169.814C3.60722 171.664 4.73439 173.111 6.23686 174.26C9.29963 176.603 13.8459 177.65 18.0166 178.116C20.0748 178.346 21.9873 178.43 23.5038 178.474C23.8696 178.485 24.2353 178.494 24.5722 178.502C24.9027 178.51 25.2055 178.518 25.4536 178.526C25.9471 178.541 26.433 178.561 26.7559 178.619C26.8421 178.634 26.975 178.662 27.1157 178.716L27.1206 178.718C27.2012 178.748 27.6019 178.901 27.8384 179.337C27.9893 179.615 28.0348 179.94 27.9602 180.254C27.8939 180.533 27.752 180.724 27.6599 180.827C27.4886 181.02 27.295 181.126 27.2182 181.166C26.9013 181.334 26.379 181.488 25.8131 181.641C24.683 181.946 22.758 182.403 19.8729 183.087C19.5967 183.153 19.3116 183.22 19.0175 183.29L18.9957 183.295L18.9737 183.3C13.8119 184.335 10.2661 185.892 8.11727 187.64C6.00418 189.358 5.30345 191.191 5.55632 192.966C5.82122 194.825 7.17522 196.944 9.87938 199.046C12.5641 201.134 16.4589 203.105 21.5135 204.685C41.7454 211.011 79.784 210.827 129.537 188.272L129.539 188.271L129.542 188.27C137.354 184.77 141.295 181.111 145.545 177.167C146.231 176.531 146.924 175.887 147.643 175.236C152.883 170.487 159.276 165.533 173.227 160.458L173.234 160.455L173.24 160.453C188.057 155.244 204.05 149.477 217.337 143.448C223.981 140.433 229.917 137.367 234.676 134.288C237.959 132.165 240.63 130.068 242.586 128.018C230.391 130.797 221.643 131.145 214.502 130.531C210.597 130.195 207.197 129.573 204.016 128.923C203.234 128.763 202.469 128.602 201.714 128.444C199.381 127.953 197.149 127.484 194.839 127.13C182.867 125.298 168.85 126.57 133.233 146.944L133.128 147.004L133.013 147.044C125.983 149.456 119.117 145.26 117.741 139.307C117.042 136.283 117.793 132.924 120.458 129.917C123.096 126.94 127.567 124.343 134.293 122.599C148.728 118.731 160.397 114.783 169.004 110.985C173.308 109.086 176.823 107.235 179.526 105.465C182.246 103.684 184.066 102.034 185.067 100.564C186.048 99.1232 186.168 97.9882 185.786 97.0346C185.369 95.9958 184.232 94.8377 181.959 93.6982C177.425 91.4252 169.19 89.6303 156.77 88.6355C149.77 88.2262 142.319 85.3504 135.939 81.52C129.562 77.6908 124.101 72.8158 121.159 68.2659C119.695 66.0013 118.769 63.6855 118.804 61.5433C118.841 59.2938 119.939 57.3884 122.148 56.125C124.27 54.9111 127.37 54.3092 131.485 54.3446C135.625 54.3801 140.923 55.0624 147.55 56.5429C171.152 61.5331 192.86 63.2834 207.277 58.9996C214.448 56.8691 219.672 53.2902 222.518 48.0111C225.364 42.7323 225.965 35.5101 223.371 25.8131C220.86 18.9864 215.885 15.4495 209.696 13.9489C203.418 12.4268 195.908 13.0152 188.589 14.5439C181.292 16.0679 174.307 18.5001 169.134 20.5583C166.551 21.5862 164.427 22.518 162.951 23.1917C162.213 23.5286 161.637 23.8007 161.248 23.988C161.053 24.0816 160.905 24.154 160.806 24.2025L160.765 24.2225C160.736 24.2371 160.712 24.2488 160.695 24.2573L160.668 24.2706L160.661 24.2744C160.661 24.2744 160.661 24.2744 160.659 24.2706L160.661 24.2744L158.07 25.5745L158.856 22.8025L158.857 22.8003L158.857 22.7985C158.859 22.7923 158.862 22.7797 158.867 22.7622C158.875 22.7271 158.889 22.6698 158.906 22.5919C158.94 22.4359 158.987 22.1981 159.031 21.8915C159.118 21.2772 159.194 20.3944 159.141 19.3459C159.034 17.2513 158.414 14.5226 156.363 11.924C152.279 6.74822 142.078 1.59268 117.047 3.93411ZM161.684 20.9797C161.714 20.4545 161.722 19.8619 161.69 19.2176C161.563 16.7383 160.824 13.4664 158.371 10.3589C153.45 4.12306 142.068 -0.955501 116.796 1.41028L116.785 1.41135L116.773 1.41262C104.929 2.7352 96.2315 5.09118 90.1407 8.28377C84.0256 11.4891 80.4703 15.5786 79.0962 20.3435C77.7323 25.0732 78.5853 30.2378 80.7978 35.4836C83.0123 40.7341 86.6362 46.182 90.9957 51.5611C99.715 62.32 111.54 72.9995 121.467 81.5186C123.951 83.6511 126.321 85.6514 128.496 87.485L128.912 87.836C130.925 89.5332 132.759 91.08 134.358 92.4553C136.069 93.9267 137.495 95.1879 138.57 96.2153C139.682 97.2777 140.31 97.989 140.54 98.3799L140.589 98.463L140.65 98.5378C141.92 100.095 142.499 101.241 142.664 102.087C142.811 102.84 142.644 103.409 142.167 103.974C141.634 104.607 140.694 105.246 139.258 105.93C137.84 106.606 136.066 107.269 133.968 108.009C133.328 108.235 132.66 108.468 131.969 108.708C123.648 111.602 111.816 115.718 100.782 125.312C94.7364 130.569 92.4706 135.427 92.4115 139.957C92.3533 144.411 94.446 148.259 96.4273 151.44C96.7791 152.005 97.1224 152.541 97.4525 153.057C98.0828 154.041 98.665 154.95 99.1662 155.841C99.9265 157.192 100.372 158.288 100.45 159.217C100.52 160.053 100.3 160.814 99.5104 161.603C98.6613 162.451 97.1305 163.349 94.5262 164.235L94.4494 164.261L94.3765 164.296C87.0111 167.894 78.3822 167.442 69.202 165.096C61.7082 163.182 54.0219 160.057 46.5382 157.014C44.8465 156.326 43.1652 155.642 41.4988 154.978C32.5687 151.417 23.9697 148.361 16.8493 148.552C13.2391 148.648 9.93378 149.578 7.149 151.746C4.37117 153.909 2.23147 157.21 0.773157 161.834L0.765524 161.859L0.758872 161.883C-0.161904 165.273 -0.160522 168.146 0.59309 170.564C1.34922 172.991 2.82953 174.854 4.68019 176.27C8.32368 179.057 13.4662 180.16 17.7314 180.637C18.0812 180.676 18.4266 180.711 18.7665 180.742L18.4466 180.818C13.0841 181.896 9.09376 183.569 6.50103 185.677C3.86908 187.818 2.62334 190.471 3.0295 193.322C3.42362 196.088 5.33414 198.733 8.3069 201.044C11.2991 203.37 15.4936 205.462 20.7476 207.104C41.7497 213.671 80.4528 213.311 130.592 190.581C138.805 186.901 143.034 182.973 147.307 179.003C147.986 178.373 148.666 177.741 149.363 177.11C154.385 172.559 160.496 167.79 174.098 162.841C188.905 157.635 204.996 151.836 218.397 145.755C225.1 142.714 231.161 139.588 236.068 136.414C240.951 133.255 244.803 129.979 246.962 126.598L248.685 123.901L245.57 124.69C231.693 128.204 222.224 128.65 214.722 128.004C210.962 127.681 207.673 127.082 204.53 126.439C203.78 126.286 203.035 126.129 202.292 125.973C199.942 125.479 197.614 124.989 195.227 124.624C182.419 122.663 167.796 124.26 132.068 144.684C126.471 146.537 121.248 143.15 120.229 138.74C119.727 136.568 120.211 134.033 122.373 131.593C124.562 129.123 128.507 126.719 134.942 125.052L134.947 125.05L134.952 125.049C149.462 121.161 161.269 117.173 170.039 113.303C174.424 111.369 178.074 109.454 180.931 107.582C183.772 105.722 185.908 103.853 187.181 101.985C188.473 100.088 188.945 98.0646 188.157 96.0966C187.402 94.2139 185.608 92.6868 183.108 91.4339C178.1 88.923 169.432 87.1045 156.961 86.1065L156.947 86.1053L156.933 86.1045C150.473 85.7299 143.42 83.0481 137.259 79.3493C131.092 75.6466 125.972 71.0171 123.306 66.8949C121.967 64.8236 121.332 63.0115 121.356 61.5846C121.377 60.2651 121.957 59.1603 123.421 58.323C124.971 57.4362 127.54 56.8469 131.463 56.8805C135.361 56.914 140.471 57.5604 146.998 59.0188L147.005 59.0204L147.012 59.0219C170.661 64.0227 192.925 65.9109 208.008 61.4294C215.589 59.1769 221.498 55.2717 224.767 49.2089C228.031 43.1556 228.531 35.1951 225.823 25.1053L225.808 25.0518L225.789 24.9996C222.946 17.2143 217.193 13.1562 210.301 11.4851C203.482 9.83182 195.534 10.5017 188.064 12.062C180.571 13.627 173.436 16.1147 168.186 18.2039C165.557 19.2498 163.394 20.1987 161.886 20.8872C161.817 20.9185 161.75 20.9494 161.684 20.9797Z" fill="#462517"/>
</g>
</svg>
