<svg width="314" height="284" viewBox="0 0 314 284" fill="none" xmlns="http://www.w3.org/2000/svg">
<g opacity="0.99">
<path d="M223.324 282.868C273.372 279.879 313.54 270.738 313.042 262.451C312.543 254.163 271.567 249.869 221.519 252.858C171.47 255.847 131.302 264.988 131.8 273.275C132.299 281.562 173.275 285.857 223.324 282.868Z" fill="#26150D"/>
<path d="M57.7053 175.348C46.7604 205.358 50.9924 223.756 65.5856 236.832C80.1788 249.908 107.176 258.626 126.877 255.357C141.105 254.63 133.513 263.453 133.079 270.612C131.689 295.417 252.448 260.547 265.147 231.384C269.96 218.049 248.73 222.666 253.473 215.038C280.835 195.424 303.454 169.634 301.995 142.392C299.806 118.172 284.531 98.1469 272.225 96.5269" fill="#3C8236"/>
<path fill-rule="evenodd" clip-rule="evenodd" d="M291.699 110.497C297.435 118.881 301.868 130.115 302.98 142.41L302.983 142.433L302.984 142.456C303.732 156.418 298.301 169.916 289.323 182.329C280.392 194.678 267.895 206.032 254.259 215.824C253.87 216.51 253.858 216.885 253.891 217.058C253.922 217.226 254.043 217.468 254.516 217.789C254.999 218.117 255.697 218.423 256.607 218.752C257.053 218.914 257.527 219.073 258.029 219.242L258.09 219.262C258.57 219.423 259.073 219.592 259.579 219.772C261.629 220.502 264.003 221.507 265.487 223.375C267.073 225.372 267.448 228.07 266.146 231.675L266.132 231.713L266.116 231.751C264.416 235.652 260.971 239.529 256.4 243.268C251.81 247.023 245.993 250.713 239.42 254.219C226.271 261.23 209.981 267.559 194.151 272.195C178.334 276.827 162.885 279.796 151.427 280.035C145.719 280.154 140.859 279.601 137.42 278.134C135.687 277.395 134.246 276.394 133.263 275.063C132.266 273.711 131.804 272.103 131.906 270.287L131.906 270.284L131.906 270.281C132.025 268.325 132.628 266.296 133.17 264.503L133.208 264.376C133.759 262.557 134.224 261.018 134.298 259.731C134.369 258.498 134.073 257.773 133.308 257.275C132.392 256.677 130.575 256.241 127.127 256.41C117.064 258.062 105.239 256.661 94.1257 253.235C82.9833 249.799 72.4334 244.29 64.9853 237.621C57.5112 230.929 52.6511 222.827 51.0916 212.55C49.5379 202.311 51.2762 190.021 56.7776 174.947L59.1726 175.813C53.7539 190.659 52.1435 202.5 53.611 212.171C55.0728 221.804 59.6039 229.392 66.6899 235.737C73.802 242.105 84.0002 247.459 94.88 250.813C105.762 254.169 117.203 255.485 126.781 253.897L126.852 253.885L126.925 253.882C130.529 253.698 133.069 254.088 134.705 255.155C136.5 256.325 136.944 258.11 136.842 259.877C136.75 261.472 136.205 263.271 135.696 264.951C135.667 265.045 135.639 265.139 135.61 265.233C135.054 267.072 134.548 268.818 134.45 270.43C134.379 271.704 134.696 272.721 135.317 273.563C135.953 274.425 136.971 275.185 138.424 275.805C141.359 277.056 145.782 277.617 151.373 277.501C162.512 277.268 177.717 274.365 193.431 269.763C209.133 265.165 225.253 258.896 238.216 251.985C244.698 248.528 250.362 244.926 254.781 241.31C259.203 237.693 262.288 234.136 263.762 230.78C264.843 227.762 264.371 226.06 263.488 224.947C262.499 223.702 260.773 222.89 258.72 222.158C258.238 221.987 257.755 221.825 257.269 221.662L257.216 221.644C256.717 221.477 256.215 221.308 255.735 221.134C254.794 220.793 253.842 220.4 253.08 219.882C252.307 219.358 251.588 218.607 251.385 217.52C251.187 216.454 251.542 215.366 252.216 214.283L252.349 214.069L252.555 213.922C266.135 204.194 278.488 192.97 287.255 180.849C296.017 168.734 301.141 155.804 300.441 142.614C299.365 130.771 295.088 119.957 289.592 111.924C284.049 103.822 277.443 98.7901 271.842 98.0533L272.176 95.5403C278.853 96.4186 286.006 102.177 291.699 110.497Z" fill="#26150D"/>
<path d="M177.011 160.912C237.973 140.528 284.024 113.998 279.867 101.656C275.711 89.3132 222.922 95.8322 161.959 116.216C100.997 136.6 54.9468 163.13 59.1032 175.473C63.2597 187.815 116.049 181.296 177.011 160.912Z" fill="#26150D"/>
<path fill-rule="evenodd" clip-rule="evenodd" d="M60.9674 170.788C60.0776 172.555 59.9362 173.957 60.3108 175.069C60.6853 176.181 61.6466 177.214 63.4258 178.088C65.2087 178.964 67.6942 179.617 70.8646 180.011C77.1989 180.798 85.9727 180.517 96.5983 179.205C117.828 176.583 146.18 169.882 176.606 159.708C207.031 149.535 233.701 137.839 252.221 127.169C261.49 121.829 268.658 116.78 273.234 112.345C275.524 110.125 277.111 108.11 278.003 106.34C278.893 104.573 279.034 103.172 278.659 102.059C278.285 100.947 277.324 99.9141 275.544 99.04C273.762 98.164 271.276 97.5107 268.106 97.1168C261.771 96.3296 252.998 96.611 242.372 97.9232C221.142 100.545 192.79 107.246 162.364 117.42C131.939 127.593 105.269 139.29 86.7492 149.959C77.4801 155.299 70.3119 160.348 65.7363 164.783C63.4461 167.003 61.8592 169.018 60.9674 170.788ZM85.474 147.761C104.181 136.984 131.017 125.224 161.554 115.013C192.091 104.802 220.614 98.0521 242.059 95.4039C252.77 94.0811 261.783 93.7729 268.421 94.5977C271.737 95.0097 274.533 95.7128 276.671 96.7631C278.813 97.8153 280.41 99.2784 281.075 101.252C281.739 103.225 281.351 105.352 280.28 107.479C279.211 109.601 277.405 111.843 275.01 114.165C270.216 118.812 262.84 123.984 253.496 129.367C234.789 140.144 207.953 151.905 177.416 162.115C146.88 172.326 118.356 179.076 96.9116 181.724C86.2 183.047 77.187 183.355 70.5493 182.53C67.2337 182.118 64.4368 181.415 62.2991 180.365C60.1577 179.313 58.5601 177.85 57.8955 175.876C57.2309 173.903 57.6194 171.776 58.6905 169.649C59.7597 167.527 61.5648 165.285 63.9599 162.964C68.7547 158.316 76.1299 153.144 85.474 147.761Z" fill="#26150D"/>
<path d="M91.2071 225.772C90.0653 225.865 89.4639 225.366 89.3992 224.282L88.1813 200.129C88.1166 199.041 88.6266 198.449 89.7037 198.36L104.102 197.179C105.214 197.09 105.816 197.586 105.91 198.669L106.12 201.157C106.211 202.218 105.712 202.795 104.631 202.884L94.2445 203.756L94.4804 208.999L103.318 207.703C104.427 207.529 105.03 208.026 105.126 209.193L105.339 211.68C105.423 212.66 104.928 213.237 103.847 213.405L94.8078 214.76L95.0171 219.717L105.948 218.823C107.06 218.734 107.665 219.233 107.756 220.313L107.969 222.804C108.061 223.864 107.563 224.439 106.477 224.528L91.2071 225.772Z" fill="#F9A705"/>
<path d="M127.734 221.781L124.471 222.312C123.656 222.444 123.18 222.115 123.042 221.325L122.749 219.628C122.199 220.355 121.51 220.973 120.719 221.449C119.925 221.941 119.056 222.31 118.144 222.542C117.919 222.608 117.689 222.659 117.456 222.695C116.176 222.927 114.856 222.842 113.618 222.447C112.484 222.079 111.477 221.413 110.709 220.524C109.927 219.608 109.416 218.504 109.232 217.329C109.028 216.217 109.111 215.074 109.472 214C109.874 212.886 110.623 211.92 111.615 211.235C112.682 210.45 114.153 209.906 116.028 209.603C116.853 209.474 117.69 209.433 118.524 209.483C119.378 209.529 120.226 209.651 121.058 209.847C121.036 209.722 121.001 209.6 120.952 209.483C120.905 209.371 120.856 209.25 120.806 209.118C120.493 208.282 119.864 207.592 119.046 207.188C118.149 206.805 117.149 206.705 116.19 206.904C115.378 207.043 114.595 207.307 113.87 207.687C113.066 208.097 112.316 208.601 111.637 209.188C111.126 209.621 110.581 209.468 110.006 208.721L109.25 207.687L108.438 206.638L108.224 206.35C108.152 206.259 108.092 206.16 108.044 206.055C107.973 205.867 107.961 205.663 108.009 205.469C108.057 205.275 108.163 205.098 108.314 204.962C109.238 204.001 110.34 203.216 111.562 202.649C112.929 201.989 114.39 201.532 115.896 201.294C118.753 200.832 121.155 201.268 123.102 202.602C125.05 203.935 126.269 206.011 126.76 208.831L128.752 220.404C128.773 220.524 128.779 220.646 128.771 220.768C128.771 220.877 128.752 220.987 128.745 221.096C128.661 221.291 128.521 221.46 128.342 221.581C128.163 221.703 127.952 221.772 127.734 221.781ZM118.028 217.551C118.592 217.456 119.142 217.291 119.663 217.06C120.172 216.845 120.645 216.556 121.065 216.204C121.426 215.911 121.68 215.514 121.791 215.071C121.828 214.952 121.849 214.83 121.854 214.706C121.86 214.585 121.853 214.462 121.832 214.342L121.802 214.185C121.061 214.029 120.305 213.947 119.546 213.941C118.832 213.927 118.117 213.974 117.411 214.083C116.675 214.157 115.974 214.425 115.385 214.859C115.179 215.032 115.026 215.255 114.94 215.505C114.855 215.755 114.841 216.023 114.9 216.28C114.945 216.549 115.068 216.8 115.255 217.004C115.442 217.207 115.686 217.354 115.957 217.428C116.624 217.643 117.338 217.685 118.028 217.551Z" fill="#F9A705"/>
<path d="M147.252 215.077C146.462 215.985 145.51 216.744 144.441 217.318C143.355 217.926 142.183 218.375 140.963 218.652C138.813 219.13 136.996 218.844 135.511 217.795C134.026 216.745 132.984 214.927 132.385 212.341L131.229 207.321L128.918 207.712C128.758 207.755 128.592 207.763 128.429 207.736C128.266 207.71 128.111 207.649 127.975 207.558C127.745 207.346 127.593 207.066 127.542 206.762L126.834 203.7C126.747 203.351 126.803 202.984 126.988 202.674C127.077 202.517 127.204 202.382 127.357 202.282C127.51 202.181 127.685 202.118 127.868 202.097L129.941 201.76L128.925 197.374C128.749 196.604 129.053 196.134 129.839 195.94L132.99 195.245C133.775 195.069 134.26 195.367 134.436 196.137L135.537 200.831L141.286 199.924C141.448 199.876 141.619 199.865 141.786 199.891C141.953 199.917 142.112 199.98 142.251 200.074C142.468 200.293 142.612 200.571 142.666 200.87L143.377 203.947C143.462 204.296 143.406 204.663 143.22 204.972C143.131 205.131 143.006 205.266 142.853 205.367C142.701 205.468 142.526 205.532 142.343 205.553L136.839 206.446L137.694 210.139C137.975 211.371 138.414 212.169 139.011 212.535C139.325 212.72 139.675 212.84 140.038 212.889C140.401 212.938 140.771 212.914 141.125 212.818C141.676 212.689 142.192 212.444 142.636 212.101C143.078 211.767 143.5 211.408 143.898 211.025C143.996 210.912 144.125 210.83 144.269 210.787C144.414 210.745 144.568 210.744 144.713 210.785C145.043 210.895 145.326 211.109 145.516 211.394L147.054 213.399C147.259 213.648 147.429 213.925 147.556 214.22C147.647 214.488 147.545 214.773 147.252 215.077Z" fill="#F9A705"/>
<path d="M163.528 211.451C163.528 212.312 163.366 212.891 163.077 213.161C162.657 213.495 162.139 213.682 161.602 213.694L159.224 213.925C158.47 213.99 157.987 213.878 157.781 213.601C157.576 213.323 157.475 212.801 157.493 212.052L157.987 187.525C158.014 186.805 158.125 186.315 158.323 186.056C158.593 185.756 158.95 185.546 159.343 185.454L162.608 184.457C162.838 184.369 163.084 184.331 163.33 184.345C163.512 184.395 163.672 184.507 163.781 184.662C163.932 184.849 164.181 185.141 164.524 185.533L181.518 203.975C182.055 204.555 182.29 205.055 182.239 205.415C182.189 205.775 181.807 206.154 181.157 206.496L179.224 207.5C178.553 207.841 178.034 207.978 177.669 207.911C177.308 207.843 176.807 207.464 176.179 206.773L173.398 203.644L163.568 206.64L163.528 211.451ZM169.765 199.567L163.568 192.595L163.542 201.465L169.765 199.567Z" fill="#F9A705"/>
<path d="M189.383 202.082C189.756 203.077 189.424 203.751 188.395 204.111L186.085 204.919C185.057 205.279 184.356 204.962 183.983 203.967L177.444 186.44C177.071 185.45 177.399 184.773 178.428 184.411L180.742 183.603C181.766 183.243 182.467 183.564 182.839 184.555L183.995 187.651C184.213 186.5 184.711 185.415 185.448 184.486C186.065 183.689 186.902 183.075 187.863 182.717C188.283 182.569 188.719 182.467 189.163 182.41C189.533 182.355 189.911 182.355 190.281 182.41C190.435 182.432 190.577 182.501 190.687 182.606C190.797 182.712 190.869 182.849 190.892 182.998L192.099 187.431C192.142 187.539 192.157 187.655 192.143 187.77C192.13 187.885 192.088 187.995 192.021 188.091C191.823 188.281 191.555 188.388 191.276 188.39C190.774 188.44 190.276 188.522 189.785 188.635C189.387 188.732 189.018 188.84 188.667 188.956C188.16 189.123 187.696 189.397 187.31 189.757C186.924 190.117 186.624 190.554 186.432 191.039C185.999 192.062 186.066 193.332 186.633 194.849L189.383 202.082Z" fill="#F9A705"/>
<path d="M208.613 197.251C206.866 198.04 204.936 198.321 203.04 198.063C201.298 197.797 199.666 197.038 198.332 195.874C196.935 194.589 195.836 193.008 195.111 191.244C194.387 189.481 194.056 187.577 194.142 185.669C194.259 183.888 194.88 182.18 195.932 180.748C197.13 179.251 198.678 178.08 200.435 177.339C202.193 176.599 204.105 176.313 205.998 176.508C207.74 176.775 209.372 177.534 210.706 178.697C212.139 179.956 213.251 181.545 213.95 183.33C214.706 185.084 215.029 186.997 214.893 188.906C214.758 190.681 214.138 192.383 213.103 193.823C211.955 195.371 210.399 196.559 208.613 197.251ZM206.368 191.739C207.45 191.318 208.348 190.522 208.902 189.493C209.442 188.478 209.379 187.159 208.713 185.538C208.047 183.916 207.17 182.941 206.08 182.611C204.964 182.314 203.782 182.396 202.717 182.844C201.651 183.293 200.76 184.082 200.181 185.092C199.644 186.105 199.708 187.423 200.373 189.044C201.039 190.666 201.917 191.641 203.007 191.971C204.119 192.298 205.31 192.216 206.368 191.739Z" fill="#F9A705"/>
<path d="M231.414 184.025L230.792 182.803C230.669 184.082 230.179 185.301 229.377 186.323C228.666 187.257 227.741 188.018 226.675 188.547C225.875 188.956 224.995 189.199 224.092 189.26C223.189 189.321 222.283 189.199 221.432 188.901C219.691 188.299 218.175 186.728 216.883 184.188L212.188 174.981C211.713 174.05 211.958 173.353 212.919 172.896L215.084 171.862C216.047 171.39 216.765 171.626 217.238 172.57L221.132 180.222C221.783 181.499 222.514 182.325 223.326 182.701C223.717 182.889 224.149 182.983 224.586 182.975C225.022 182.967 225.45 182.857 225.834 182.655C226.568 182.326 227.198 181.816 227.662 181.175C228.096 180.531 228.305 179.768 228.258 179C228.187 177.995 227.895 177.016 227.403 176.129L223.241 167.956C222.77 167.025 223.011 166.331 223.973 165.871L226.137 164.837C227.1 164.376 227.819 164.612 228.295 165.545L236.474 181.614C236.946 182.545 236.705 183.243 235.743 183.699L233.578 184.733C232.609 185.194 231.893 184.956 231.414 184.025Z" fill="#F9A705"/>
<path d="M245.598 177.676C246.139 178.58 245.96 179.302 245.062 179.841L243.029 181.072C242.128 181.621 241.41 181.441 240.873 180.534L231.072 164.22C230.531 163.315 230.709 162.593 231.607 162.054L233.637 160.824C234.538 160.28 235.256 160.459 235.793 161.361L237.323 163.913C237.353 162.603 237.732 161.324 238.419 160.21C239.027 159.204 239.861 158.356 240.855 157.734C241.603 157.251 242.443 156.93 243.322 156.792C244.2 156.654 245.098 156.702 245.957 156.933C247.715 157.397 249.335 158.865 250.818 161.336L256.207 170.309C256.748 171.214 256.57 171.936 255.672 172.475L253.642 173.705C252.736 174.254 252.018 174.075 251.486 173.168L247.013 165.725C246.262 164.476 245.479 163.693 244.653 163.375C244.254 163.217 243.823 163.157 243.396 163.202C242.97 163.246 242.56 163.394 242.202 163.632C241.514 164.028 240.941 164.599 240.542 165.288C240.173 165.978 240.033 166.769 240.144 167.544C240.3 168.558 240.667 169.527 241.222 170.388L245.598 177.676Z" fill="#F9A705"/>
<path d="M275.632 158.53L273.788 160.031C272.969 160.695 272.232 160.611 271.575 159.78L270.662 158.625C270.589 159.642 270.291 160.63 269.789 161.513C269.268 162.432 268.581 163.242 267.762 163.901C266.61 164.851 265.205 165.43 263.727 165.565C262.158 165.697 260.583 165.392 259.172 164.682C257.526 163.86 256.09 162.662 254.976 161.183C253.765 159.73 252.963 157.972 252.656 156.095C252.403 154.397 252.612 152.66 253.261 151.074C253.935 149.439 255.012 148.009 256.39 146.92C256.908 146.497 257.451 146.107 258.016 145.75C258.58 145.4 259.162 145.081 259.759 144.795L255.33 139.199C254.674 138.365 254.755 137.616 255.574 136.949L257.421 135.452C258.24 134.786 258.978 134.869 259.634 135.7L275.879 156.277C276.536 157.113 276.453 157.864 275.632 158.53ZM265.084 158.654C265.747 158.146 266.254 157.458 266.548 156.67C266.806 155.904 266.823 155.076 266.595 154.3C266.316 153.358 265.85 152.483 265.223 151.731L263.379 149.391C262.782 149.597 262.208 149.865 261.664 150.191C261.061 150.559 260.483 150.97 259.935 151.419C259.015 152.113 258.389 153.135 258.18 154.279C257.994 155.386 258.361 156.522 259.28 157.687C259.756 158.314 260.369 158.821 261.07 159.17C261.705 159.486 262.415 159.612 263.118 159.533C263.842 159.436 264.524 159.131 265.084 158.654Z" fill="#F9A705"/>
<path d="M95.2727 165.746C116.614 158.433 78.5469 146.921 101.929 126.436C125.311 105.95 152.31 110.801 141.79 97.8051C136.499 88.7549 23.4091 12.9424 117.162 2.39405C167.274 -2.33287 160.161 22.938 160.161 22.938C160.161 22.938 213.755 -4.16182 224.409 25.236C235.005 65.0076 194.469 67.731 147.404 57.7027C94.9822 45.8999 130.122 85.8315 156.947 87.3986C206.547 91.3983 192.461 108.415 134.796 123.985C108.574 130.832 120.162 150.448 132.78 146.085C203.921 105.081 189.865 140.315 245.62 126.087C237.605 138.729 203.195 151.492 173.687 161.946C146.238 172.007 148.776 181.464 130.26 189.824C30.7626 235.275 -22.6177 190.915 19.3566 182.428C46.2864 175.988 -4.26868 188.333 2.69254 162.513C13.8842 126.752 64.3158 180.981 95.2727 165.746Z" fill="#F9A705"/>
<path fill-rule="evenodd" clip-rule="evenodd" d="M117.003 3.93692C105.326 5.2433 96.9882 7.54857 91.2967 10.5357C85.6275 13.511 82.6532 17.121 81.5186 21.0604C80.3738 25.0348 81.033 29.5794 83.1199 34.5337C85.2048 39.4833 88.6675 44.7263 92.948 50.0147C101.509 60.5911 113.177 71.1535 123.088 79.6702C125.563 81.7967 127.924 83.7924 130.097 85.6277L130.515 85.9804C132.524 87.6766 134.368 89.2331 135.977 90.6185C137.694 92.0976 139.16 93.3953 140.285 94.4713C141.33 95.4706 142.184 96.3737 142.634 97.0963C143.972 98.7509 144.836 100.265 145.115 101.695C145.415 103.237 145.014 104.575 144.069 105.698C143.18 106.753 141.843 107.582 140.309 108.314C138.757 109.054 136.868 109.757 134.771 110.498C134.132 110.724 133.469 110.955 132.786 111.193C124.465 114.094 113.068 118.067 102.423 127.335C96.7334 132.289 94.9741 136.522 94.9272 140.115C94.8794 143.783 96.6 147.089 98.56 150.24C98.8711 150.74 99.1935 151.245 99.5144 151.747C100.17 152.773 100.82 153.789 101.355 154.741C102.155 156.165 102.829 157.656 102.954 159.148C103.087 160.732 102.594 162.224 101.282 163.537C100.04 164.78 98.104 165.827 95.3929 166.757C87.2387 170.714 77.9148 170.101 68.5406 167.703C60.8629 165.739 52.9766 162.527 45.4894 159.478C43.815 158.796 42.1607 158.122 40.5331 157.473C31.519 153.874 23.4137 151.048 16.9116 151.222C13.7105 151.308 10.975 152.122 8.71955 153.88C6.46148 155.641 4.56463 158.441 3.21489 162.714C2.39566 165.747 2.4528 168.112 3.02982 169.967C3.60587 171.818 4.73261 173.266 6.23451 174.417C9.29612 176.762 13.8407 177.81 18.0098 178.276C20.0672 178.506 21.9789 178.59 23.4949 178.635C23.8606 178.645 24.2261 178.654 24.5629 178.662C24.8933 178.671 25.196 178.678 25.4439 178.686C25.9373 178.701 26.423 178.722 26.7458 178.779C26.8319 178.795 26.9648 178.822 27.1054 178.876L27.1103 178.878C27.1909 178.909 27.5914 179.061 27.8279 179.498C27.9787 179.776 28.0242 180.102 27.9496 180.416C27.8833 180.695 27.7414 180.886 27.6494 180.989C27.4782 181.182 27.2846 181.288 27.2079 181.329C26.8911 181.497 26.369 181.65 25.8033 181.804C24.6737 182.109 22.7494 182.566 19.8654 183.251C19.5892 183.317 19.3043 183.385 19.0103 183.454L18.9885 183.46L18.9665 183.464C13.8067 184.501 10.2622 186.059 8.11421 187.808C6.00192 189.528 5.30146 191.363 5.55423 193.139C5.81903 195 7.17251 197.121 9.87564 199.225C12.5594 201.314 16.4527 203.287 21.5054 204.869C41.7295 211.2 79.7537 211.017 129.487 188.441L129.49 188.44L129.493 188.439C137.301 184.935 141.242 181.274 145.49 177.326C146.175 176.689 146.868 176.045 147.587 175.393C152.825 170.64 159.215 165.681 173.161 160.602L173.168 160.599L173.174 160.597C187.985 155.383 203.972 149.611 217.255 143.577C223.896 140.559 229.829 137.49 234.587 134.409C237.869 132.283 240.539 130.184 242.493 128.132C230.303 130.914 221.559 131.263 214.421 130.648C210.517 130.312 207.118 129.689 203.938 129.038C203.157 128.878 202.392 128.717 201.638 128.559C199.305 128.068 197.074 127.598 194.765 127.244C182.797 125.41 168.786 126.684 133.182 147.076L133.077 147.136L132.962 147.175C125.935 149.59 119.072 145.39 117.697 139.432C116.998 136.405 117.749 133.043 120.412 130.033C123.049 127.053 127.518 124.454 134.242 122.709C148.671 118.837 160.336 114.885 168.94 111.085C173.242 109.184 176.756 107.331 179.458 105.559C182.177 103.776 183.996 102.125 184.997 100.654C185.978 99.2118 186.097 98.0758 185.715 97.1213C185.299 96.0816 184.162 94.9225 181.89 93.7819C177.357 91.5068 169.126 89.7103 156.711 88.7146C149.713 88.305 142.265 85.4266 135.888 81.5927C129.512 77.7601 124.054 72.8807 121.113 68.3267C119.65 66.06 118.724 63.7421 118.759 61.598C118.796 59.3465 119.893 57.4394 122.101 56.1748C124.223 54.9599 127.322 54.3575 131.435 54.3928C135.573 54.4284 140.87 55.1113 147.494 56.5931C171.087 61.5878 192.786 63.3397 207.199 59.052C214.366 56.9197 219.588 53.3375 222.434 48.0536C225.279 42.7701 225.879 35.5413 223.287 25.8356C220.776 19.0028 215.803 15.4626 209.616 13.9607C203.34 12.4372 195.833 13.0262 188.517 14.5563C181.223 16.0817 174.241 18.516 169.07 20.5761C166.488 21.6049 164.365 22.5375 162.889 23.2119C162.151 23.549 161.576 23.8215 161.187 24.0089C160.992 24.1026 160.843 24.175 160.745 24.2236L160.704 24.2436C160.674 24.2582 160.651 24.2699 160.634 24.2784L160.607 24.2918L160.6 24.2955C160.6 24.2955 160.6 24.2955 160.598 24.2917L160.6 24.2955L158.01 25.5968L158.796 22.8223L158.796 22.8201L158.797 22.8183C158.799 22.8121 158.802 22.7995 158.806 22.7819C158.815 22.7469 158.829 22.6895 158.846 22.6115C158.88 22.4554 158.926 22.2174 158.97 21.9105C159.058 21.2957 159.134 20.412 159.08 19.3626C158.974 17.2661 158.354 14.5349 156.304 11.934C152.221 6.75356 142.025 1.59338 117.003 3.93692ZM161.622 20.9978C161.653 20.4722 161.661 19.8791 161.628 19.2342C161.502 16.7526 160.763 13.4778 158.311 10.3675C153.392 4.12603 142.014 -0.9571 116.752 1.41082L116.741 1.41189L116.729 1.41316C104.889 2.73693 96.195 5.09503 90.1065 8.29049C83.9937 11.4987 80.4398 15.5919 79.0662 20.3611C77.7028 25.0951 78.5555 30.2644 80.7672 35.5149C82.9808 40.7701 86.6033 46.2229 90.9611 51.6069C99.6772 62.3754 111.498 73.0645 121.421 81.5913C123.904 83.7257 126.273 85.7278 128.447 87.5631L128.863 87.9144C130.875 89.6131 132.709 91.1614 134.307 92.5379C136.018 94.0106 137.442 95.273 138.517 96.3012C139.629 97.3646 140.257 98.0766 140.487 98.4678L140.536 98.551L140.597 98.6259C141.867 100.184 142.445 101.332 142.61 102.178C142.757 102.932 142.59 103.502 142.113 104.067C141.58 104.701 140.641 105.34 139.206 106.025C137.788 106.702 136.014 107.365 133.918 108.106C133.277 108.332 132.61 108.565 131.918 108.805C123.601 111.702 111.774 115.821 100.743 125.424C94.7005 130.686 92.4355 135.549 92.3764 140.082C92.3183 144.54 94.4101 148.391 96.3907 151.576C96.7424 152.141 97.0855 152.678 97.4155 153.194C98.0456 154.179 98.6275 155.089 99.1286 155.98C99.8886 157.332 100.334 158.43 100.412 159.359C100.482 160.196 100.262 160.958 99.4727 161.748C98.6239 162.597 97.0936 163.496 94.4904 164.382L94.4135 164.408L94.3407 164.444C86.978 168.044 78.3524 167.592 69.1758 165.245C61.6848 163.328 54.0014 160.2 46.5205 157.155C44.8295 156.466 43.1488 155.782 41.4831 155.117C32.5563 151.553 23.9606 148.494 16.8429 148.685C13.2341 148.782 9.93003 149.712 7.14631 151.882C4.36953 154.047 2.23064 157.351 0.772881 161.98L0.765251 162.004L0.758601 162.028C-0.161825 165.421 -0.160443 168.296 0.592883 170.717C1.34872 173.147 2.82847 175.011 4.67843 176.428C8.32053 179.218 13.4611 180.322 17.7246 180.799C18.0744 180.838 18.4197 180.873 18.7594 180.904L18.4396 180.98C13.0792 182.06 9.09032 183.733 6.49858 185.844C3.86763 187.986 2.62236 190.642 3.02836 193.495C3.42234 196.264 5.33214 198.911 8.30377 201.224C11.2948 203.553 15.4877 205.646 20.7397 207.29C41.7338 213.863 80.4223 213.503 130.543 190.752C138.752 187.069 142.98 183.137 147.251 179.164C147.93 178.533 148.609 177.901 149.306 177.269C154.326 172.714 160.435 167.941 174.032 162.987C188.834 157.777 204.918 151.972 218.315 145.886C225.014 142.842 231.073 139.713 235.979 136.536C240.86 133.375 244.71 130.095 246.868 126.712L248.59 124.012L245.476 124.802C231.605 128.319 222.14 128.765 214.641 128.119C210.882 127.795 207.594 127.195 204.452 126.552C203.703 126.399 202.958 126.242 202.216 126.086C199.866 125.591 197.539 125.101 195.153 124.735C182.35 122.773 167.733 124.372 132.018 144.814C126.423 146.668 121.202 143.278 120.183 138.864C119.681 136.691 120.166 134.153 122.327 131.711C124.515 129.238 128.459 126.833 134.891 125.164L134.896 125.162L134.901 125.161C149.405 121.269 161.208 117.277 169.975 113.405C174.358 111.468 178.006 109.552 180.862 107.679C183.702 105.816 185.837 103.946 187.109 102.076C188.402 100.177 188.873 98.1522 188.085 96.1825C187.331 94.298 185.537 92.7696 183.039 91.5156C178.032 89.0024 169.368 87.1823 156.902 86.1833L156.888 86.1822L156.874 86.1814C150.415 85.8064 143.365 83.1222 137.207 79.4201C131.042 75.7141 125.924 71.0803 123.26 66.9545C121.921 64.8812 121.286 63.0675 121.31 61.6394C121.331 60.3187 121.911 59.2129 123.374 58.3748C124.924 57.4872 127.491 56.8974 131.413 56.9311C135.31 56.9646 140.418 57.6115 146.942 59.0713L146.949 59.0729L146.956 59.0744C170.596 64.0796 192.852 65.9696 207.929 61.484C215.508 59.2295 221.414 55.3208 224.682 49.2525C227.945 43.1937 228.445 35.2261 225.737 25.1272L225.723 25.0736L225.703 25.0214C222.862 17.2291 217.111 13.1673 210.221 11.4947C203.404 9.83994 195.46 10.5104 187.992 12.0722C180.503 13.6386 173.37 16.1284 168.122 18.2196C165.494 19.2664 163.332 20.2162 161.824 20.9052C161.756 20.9367 161.688 20.9675 161.622 20.9978Z" fill="#26150D"/>
</g>
</svg>
